:SAMPLES-PER-SECOND 30
:FRAME-RANGE 1-2009
:FULLY-SPECIFIED
:DEGREES
566
root  2.68375 39.3197 -91.2451 -177.436 -52.2607 -176.416
RightUpLeg  -11.7935 -4.98532 -0.00626083
RightLeg  45.0549 -6.69179 -7.4303
RightFoot  -11.7841 -0.0541868 6.69358
RightToes  2.96424e-010 1.2921e-014 -6.02303e-014
Spine  -4.51739 -0.732377 -1.9362
Spine1  7.53285 0.0709574 -3.86718
HEad  19.204 39.9024 0.640072
LeftShoulder1  0.85841 -0.807717 -14.1935
LeftArm  -33.2888 -20.9003 -22.5643
LeftForeArm  -23.1917 -12.5278 -2.67546
LeftHand  0.0248 1.48324 -0.993502
RightShoulder  1.98361 2.53052 28.0505
RightArm  -21.541 0.410797 47.3947
RightForeArm  67.2189 0.871618 6.29466
RightHand  -0.00682827 -5.43489 -16.9003
LeftUpLeg  -23.5681 -0.842601 0.100423
LeftLeg  15.3956 -1.71213 0.268743
LeftFoot  1.7669 0.133146 -1.25228
LeftToes  -1.2485e-010 1.20979e-011 -1.0929e-011
567
root  2.16157 39.4753 -91.7837 -177.677 -53.8893 -175.804
RightUpLeg  -11.5408 -4.50169 0.735756
RightLeg  37.7097 -6.02606 -5.23778
RightFoot  -13.2952 0.0219768 6.57704
RightToes  2.96424e-010 1.2921e-014 -6.02303e-014
Spine  -4.44392 -1.32895 -2.61597
Spine1  7.54697 -0.579964 -3.35611
HEad  21.2762 35.0768 1.95003
LeftShoulder1  0.896507 -1.06137 -13.821
LeftArm  -33.9641 -21.6462 -21.5653
LeftForeArm  -22.04 -12.5505 -2.61528
LeftHand  -0.00414335 1.67595 -0.15833
RightShoulder  1.91665 2.36203 27.8684
RightArm  -21.6291 -0.34692 47.4628
RightForeArm  67.0806 0.623269 6.25422
RightHand  -0.00050421 -5.48037 -16.783
LeftUpLeg  -22.5421 -0.767483 0.243758
LeftLeg  14.9877 -3.42241 -0.125173
LeftFoot  1.18867 0.0715908 -0.717803
LeftToes  -1.2485e-010 1.20979e-011 -1.0929e-011
568
root  1.69313 39.5755 -92.298 -177.859 -55.0869 -175.333
RightUpLeg  -11.4901 -2.89417 1.16385
RightLeg  31.4506 -4.74635 -3.36141
RightFoot  -14.5038 0.11478 7.71673
RightToes  2.96424e-010 1.2921e-014 -6.02303e-014
Spine  -4.39018 -1.65717 -3.22027
Spine1  7.48048 -0.930129 -3.02972
HEad  22.9973 29.4846 2.79334
LeftShoulder1  0.994485 -1.66224 -13.261
LeftArm  -33.9947 -22.0366 -20.8465
LeftForeArm  -21.4274 -12.1824 -2.56886
LeftHand  -0.0112988 2.01056 0.012751
RightShoulder  1.86048 2.19734 27.8542
RightArm  -21.9719 -1.14695 47.129
RightForeArm  67.179 0.26725 6.07517
RightHand  0.0183957 -5.61322 -16.7676
LeftUpLeg  -21.6615 -1.32065 0.393706
LeftLeg  14.8594 -4.06379 0.0385825
LeftFoot  0.49676 0.00376556 -0.0653049
LeftToes  -1.2485e-010 1.20979e-011 -1.0929e-011
569
root  1.27146 39.6643 -92.7808 -178.021 -55.633 -174.869
RightUpLeg  -12.0818 -1.01582 1.47182
RightLeg  27.1899 -4.42953 -2.69081
RightFoot  -15.1918 0.158723 7.78104
RightToes  2.96424e-010 1.2921e-014 -6.02303e-014
Spine  -4.29282 -1.82031 -3.61111
Spine1  7.52567 -1.11367 -2.73787
HEad  24.255 24.0188 3.31897
LeftShoulder1  0.968181 -1.58691 -13.0077
LeftArm  -33.5812 -22.6323 -20.2713
LeftForeArm  -21.8797 -12.1083 -2.70664
LeftHand  -0.0190209 2.25 0.256976
RightShoulder  1.82963 2.11906 27.7678
RightArm  -22.4204 -1.6259 46.7438
RightForeArm  67.3145 -0.0812583 5.8213
RightHand  0.0258789 -5.6652 -16.7901
LeftUpLeg  -20.8905 -1.31456 0.707213
LeftLeg  14.8615 -4.69094 0.0436372
LeftFoot  -0.341108 -0.00918359 0.116806
LeftToes  -1.2485e-010 1.20979e-011 -1.0929e-011
570
root  0.880105 39.7537 -93.2316 -177.944 -55.5621 -174.611
RightUpLeg  -13.3122 0.16977 1.59327
RightLeg  24.5316 -4.74778 -2.57991
RightFoot  -14.571 0.0940608 6.83849
RightToes  2.96424e-010 1.2921e-014 -6.02303e-014
Spine  -4.17551 -1.86225 -3.83647
Spine1  7.29614 -1.1281 -2.65598
HEad  25.5922 18.6806 3.80476
LeftShoulder1  0.968139 -1.63316 -12.8023
LeftArm  -32.9731 -22.4621 -19.5111
LeftForeArm  -20.7968 -12.3365 -3.003
LeftHand  -0.0136045 2.18909 0.0630324
RightShoulder  1.81895 2.07255 27.8628
RightArm  -22.9925 -1.82314 46.2711
RightForeArm  67.2313 -0.857755 5.43952
RightHand  0.0426101 -5.77433 -17.0521
LeftUpLeg  -20.1451 -0.637243 0.995537
LeftLeg  14.7153 -5.17567 -0.073797
LeftFoot  -1.06262 -0.0420035 0.538491
LeftToes  -1.2485e-010 1.20979e-011 -1.0929e-011
571
root  0.508803 39.8359 -93.6581 -177.682 -55.2825 -174.58
RightUpLeg  -14.7238 0.130511 1.61254
RightLeg  22.5122 -5.21124 -2.58054
RightFoot  -13.7505 0.0414807 6.40668
RightToes  2.96424e-010 1.2921e-014 -6.02303e-014
Spine  -4.05627 -1.89348 -3.8802
Spine1  7.15975 -1.08288 -2.80255
HEad  26.285 13.8531 4.13183
LeftShoulder1  0.95938 -1.64084 -12.5732
LeftArm  -32.3524 -21.8522 -18.9537
LeftForeArm  -19.4685 -13.2131 -3.42555
LeftHand  -0.00922334 2.3106 -0.129395
RightShoulder  1.7776 1.93682 27.9481
RightArm  -23.3234 -2.07353 45.7911
RightForeArm  67.2464 -1.16537 5.22499
RightHand  0.0423873 -5.76981 -17.1515
LeftUpLeg  -19.2791 0.0814353 1.18959
LeftLeg  14.3159 -5.60907 -0.141717
LeftFoot  -1.77955 -0.0269783 0.45109
LeftToes  -1.2485e-010 1.20979e-011 -1.0929e-011
572
root  0.164181 39.8937 -94.0652 -177.278 -54.9637 -174.701
RightUpLeg  -16.2504 -1.17484 1.64664
RightLeg  20.7475 -5.41216 -2.47013
RightFoot  -13.1706 0.0147842 6.52231
RightToes  2.96424e-010 1.2921e-014 -6.02303e-014
Spine  -3.85061 -1.99428 -3.97587
Spine1  6.98763 -1.14133 -2.82696
HEad  26.7354 10.16 4.20883
LeftShoulder1  0.930747 -1.48168 -12.6241
LeftArm  -32.4207 -21.1872 -18.6364
LeftForeArm  -17.6532 -14.1858 -3.65237
LeftHand  0.0333077 1.8132 -1.42926
RightShoulder  1.75842 1.88994 27.881
RightArm  -23.7938 -2.523 45.3929
RightForeArm  66.9648 -0.947367 5.03657
RightHand  0.0149361 -5.59074 -16.6748
LeftUpLeg  -18.5368 0.398602 1.26922
LeftLeg  14.0017 -5.6652 0.0476025
LeftFoot  -2.4977 -0.0135628 0.37031
LeftToes  -1.2485e-010 1.20979e-011 -1.0929e-011
573
root  -0.170948 39.9545 -94.4763 -176.635 -54.1599 -175.012
RightUpLeg  -17.9821 -2.6097 1.7629
RightLeg  19.2492 -5.3106 -2.26439
RightFoot  -12.1223 -0.0412919 6.0169
RightToes  2.96424e-010 1.2921e-014 -6.02303e-014
Spine  -3.65201 -1.9939 -3.90154
Spine1  6.78514 -1.07582 -2.94313
HEad  26.9387 7.06435 4.24517
LeftShoulder1  0.865741 -1.08367 -12.9339
LeftArm  -31.1187 -20.4944 -18.245
LeftForeArm  -17.0626 -14.68 -4.03236
LeftHand  0.0481657 1.99225 -2.05985
RightShoulder  1.72609 1.79923 27.8445
RightArm  -23.6621 -2.79558 44.9256
RightForeArm  66.1798 -0.958136 5.1144
RightHand  0.00804033 -5.53759 -16.9511
LeftUpLeg  -17.6546 1.16512 1.34693
LeftLeg  13.3441 -5.58048 0.084192
LeftFoot  -3.14985 -0.00389528 0.319681
LeftToes  -1.2485e-010 1.20979e-011 -1.0929e-011
574
root  -0.49053 40.0066 -94.8937 -176.067 -53.3163 -175.377
RightUpLeg  -19.5221 -4.51433 2.01504
RightLeg  17.686 -5.23784 -2.07172
RightFoot  -11.1007 -0.0873784 5.69443
RightToes  2.96424e-010 1.2921e-014 -6.02303e-014
Spine  -3.5149 -1.97797 -3.72329
Spine1  6.704 -0.98499 -3.11804
HEad  27.4411 4.30786 4.09167
LeftShoulder1  0.87213 -1.06112 -13.2075
LeftArm  -29.2557 -18.9742 -18.4453
LeftForeArm  -18.6212 -14.366 -4.27659
LeftHand  0.0327971 2.65879 -2.07068
RightShoulder  1.70424 1.71561 27.974
RightArm  -23.5427 -3.1507 44.4102
RightForeArm  65.2003 -0.953539 5.20484
RightHand  8.17805e-005 -5.48071 -17.0847
LeftUpLeg  -16.6316 1.9177 1.48619
LeftLeg  12.6917 -5.48973 0.0113575
LeftFoot  -3.89854 0.034884 -0.175276
LeftToes  -1.2485e-010 1.20979e-011 -1.0929e-011
